PathFileType	4	(X/Y/Z)	Kaydara	
DataRate	CameraRate	NumFrames	NumMarkers	Units	OrigDataRate	OrigDataStartFrame	OrigNumFrames	
120.00	120.00	4	72	mm	120.00	66	261	
Frame#	Time	Hips			RightUpLeg			RightLeg			RightFoot			RightFoot_End			LeftUpLeg			LeftLeg			LeftFoot			LeftFoot_End			Spine			Spine1			Spine2			Spine3			Neck			Head			Head_End			RightShoulder			RightArm			RightForeArm			RightHand			RightHandThumb1			RightHandThumb2			RightHandThumb3			RightHandThumb3_End			RightInHandIndex			RightHandIndex1			RightHandIndex2			RightHandIndex3			RightHandIndex3_End			RightInHandMiddle			RightHandMiddle1			RightHandMiddle2			RightHandMiddle3			RightHandMiddle3_End			RightInHandRing			RightHandRing1			RightHandRing2			RightHandRing3			RightHandRing3_End			RightInHandPinky			RightHandPinky1			RightHandPinky2			RightHandPinky3			RightHandPinky3_End			LeftShoulder			LeftArm			LeftForeArm			LeftHand			LeftHandThumb1			LeftHandThumb2			LeftHandThumb3			LeftHandThumb3_End			LeftInHandIndex			LeftHandIndex1			LeftHandIndex2			LeftHandIndex3			LeftHandIndex3_End			LeftInHandMiddle			LeftHandMiddle1			LeftHandMiddle2			LeftHandMiddle3			LeftHandMiddle3_End			LeftInHandRing			LeftHandRing1			LeftHandRing2			LeftHandRing3			LeftHandRing3_End			LeftInHandPinky			LeftHandPinky1			LeftHandPinky2			LeftHandPinky3			LeftHandPinky3_End			
		X1	Y1	Z1	X2	Y2	Z2	X3	Y3	Z3	X4	Y4	Z4	X5	Y5	Z5	X6	Y6	Z6	X7	Y7	Z7	X8	Y8	Z8	X9	Y9	Z9	X10	Y10	Z10	X11	Y11	Z11	X12	Y12	Z12	X13	Y13	Z13	X14	Y14	Z14	X15	Y15	Z15	X16	Y16	Z16	X17	Y17	Z17	X18	Y18	Z18	X19	Y19	Z19	X20	Y20	Z20	X21	Y21	Z21	X22	Y22	Z22	X23	Y23	Z23	X24	Y24	Z24	X25	Y25	Z25	X26	Y26	Z26	X27	Y27	Z27	X28	Y28	Z28	X29	Y29	Z29	X30	Y30	Z30	X31	Y31	Z31	X32	Y32	Z32	X33	Y33	Z33	X34	Y34	Z34	X35	Y35	Z35	X36	Y36	Z36	X37	Y37	Z37	X38	Y38	Z38	X39	Y39	Z39	X40	Y40	Z40	X41	Y41	Z41	X42	Y42	Z42	X43	Y43	Z43	X44	Y44	Z44	X45	Y45	Z45	X46	Y46	Z46	X47	Y47	Z47	X48	Y48	Z48	X49	Y49	Z49	X50	Y50	Z50	X51	Y51	Z51	X52	Y52	Z52	X53	Y53	Z53	X54	Y54	Z54	X55	Y55	Z55	X56	Y56	Z56	X57	Y57	Z57	X58	Y58	Z58	X59	Y59	Z59	X60	Y60	Z60	X61	Y61	Z61	X62	Y62	Z62	X63	Y63	Z63	X64	Y64	Z64	X65	Y65	Z65	X66	Y66	Z66	X67	Y67	Z67	X68	Y68	Z68	X69	Y69	Z69	X70	Y70	Z70	X71	Y71	Z71	X72	Y72	Z72	

66	0.542	81.20300000000043	893.81699	129.612	165.05582999999933	902.9486600000001	90.61918999999999	60.680639999999585	501.41425	32.52316	42.49483000000055	114.84204	11.66858	-68.0013600000002	43.19321	150.21694	10.4367400000001	858.39932	181.33641	-96.67460000000028	469.74532	294.94944	-209.23820999999953	71.57102999999998	457.74615000000006	-366.29475999999977	31.144860000000005	356.5652600000001	19.949709999999868	1014.4224499999999	83.21785	-40.24735000000055	1075.92694	38.28392	-106.81491000000005	1133.7301900000002	-11.29982	-175.19531000000006	1179.0089299999997	-63.44679999999999	-249.68467000000055	1228.8363599999996	-115.9322	-324.7982599999996	1268.1734800000002	-156.94590000000002	-462.14951999999994	1349.13506	-161.42972	-202.74401000000034	1228.3041900000003	-114.79401999999999	-121.57036000000062	1291.02826	-190.33745	-27.94310999999925	1077.9576	-317.67746999999997	166.43911000000026	934.5251600000001	-413.26676	187.28985000000011	944.84424	-445.75807	191.20304000000033	932.4073300000001	-480.20031	194.1308599999993	919.7363599999999	-502.23152	196.7450399999998	905.74275	-518.9260899999999	192.11951000000045	932.4975600000001	-441.42491	222.63258999999925	909.8433700000002	-478.54562999999996	232.16820000000007	888.3040400000001	-506.02495	229.14235000000008	876.7678500000001	-522.7244200000001	220.59802000000036	868.4704899999999	-536.28726	191.05267000000003	922.1053000000002	-434.8956299999999	220.24049999999988	894.3895500000001	-467.5699000000001	230.39138999999977	869.5808899999998	-496.57542999999987	226.6187399999999	855.0367	-516.2525099999999	217.21034000000054	845.6534499999999	-530.86412	189.64649000000009	915.36917	-429.31332000000003	214.95312000000013	884.7645500000001	-453.68545000000006	223.49330999999984	861.85079	-477.91398999999996	219.69103000000086	847.13647	-496.33501	210.76738999999998	837.98911	-509.80866000000003	186.1477700000005	908.0418699999999	-421.97817	207.63516999999956	875.5405700000001	-439.74783	213.88300999999956	855.3121100000001	-457.40058	210.8238199999996	843.6700200000001	-469.99109999999996	202.7544399999997	835.0435800000001	-481.43977000000007	-247.20895999999993	1194.68171	-82.84426000000002	-306.9860600000002	1089.48658	-39.23980999999999	-86.82916000000023	1028.23386	-172.80911	126.51009000000067	969.40968	-308.8784099999999	150.06962999999996	992.9075	-331.0080699999999	184.45725000000039	1005.9379799999999	-329.0190799999999	209.4321600000003	1010.8387399999998	-326.4236	231.13155000000006	1011.3538299999999	-323.22443999999996	155.60351000000082	980.1051400000002	-331.14171999999996	205.2227299999995	980.95647	-350.09998999999993	241.41155999999955	981.53166	-350.24865	260.13345000000027	985.2135500000002	-342.69579	273.0820700000004	990.5034	-331.28731000000005	156.74960999999985	968.72298	-326.56988	205.76615999999922	963.39673	-342.59202000000005	245.24770999999964	962.51974	-342.0731999999999	267.8312999999998	966.2398	-332.63411999999994	281.9976400000005	971.6768499999998	-319.99229	156.29287000000022	960.6328300000001	-322.98439999999994	199.82424999999967	948.7577800000001	-334.6064	234.15146000000004	946.4642000000001	-333.43144000000007	255.88994000000002	949.2404000000001	-323.94286000000005	269.18844999999965	953.9677699999999	-311.8744499999999	154.33092000000033	951.4960299999999	-317.2918900000001	193.06329000000005	934.8813900000001	-324.87879	220.22870000000057	930.71104	-322.7587199999999	235.92880999999943	931.60711	-315.26728999999995	247.61933000000045	935.14509	-304.24835
67	0.55	81.20300000000043	893.81699	129.612	165.2925499999992	903.35051	91.22993000000001	60.869079999999485	501.66886000000005	34.24925	42.17410999999993	115.08732000000002	14.02719	-68.30173000000013	43.61213999999999	152.68143000000003	10.197970000000169	857.99829	180.72947	-98.78863000000001	470.09847999999994	295.13382	-212.2423200000003	72.77688	459.3894	-368.91564000000017	32.945809999999994	357.38172	19.8761999999997	1014.3750400000001	83.19172999999999	-40.32241999999951	1075.8538000000003	38.2247	-106.86697000000004	1133.6429300000002	-11.406369999999997	-175.17493999999988	1178.9532800000002	-63.62076000000001	-249.62935000000016	1228.7864300000006	-116.15031999999998	-324.9787699999997	1267.8960000000002	-156.94847999999996	-462.4912800000002	1348.59694	-161.18146	-202.69765999999981	1228.6424	-114.60098000000002	-121.27053999999953	1293.09291	-188.39822999999998	-23.328089999999975	1082.87265	-317.2212400000001	174.63313000000016	945.2635300000001	-414.01851000000005	196.0039200000001	956.91245	-445.71257	200.7225900000003	945.7186399999999	-480.47878999999995	204.2159099999999	933.85015	-502.87156	207.30543000000034	920.4714599999999	-519.9838	200.87950999999975	944.47168	-441.71283	232.35299999999916	923.42621	-478.97831	242.6537500000004	902.95037	-506.98935000000006	240.07848999999987	891.97128	-524.134	231.89017000000058	884.06481	-538.1426300000002	199.79625000000033	933.84883	-435.56868999999995	229.91191999999955	907.5774800000002	-468.59235000000007	240.89256999999998	883.8935899999999	-498.22898000000004	237.6610500000006	870.00437	-518.46757	228.64098999999987	861.0405100000002	-533.57883	198.35319000000072	926.90923	-430.2513199999999	224.45712000000003	897.4238199999999	-455.1564399999999	233.71380000000045	875.45163	-479.98656000000005	230.4299200000005	861.34849	-498.97655	221.8697199999997	852.5857	-512.9329600000001	194.7901499999998	919.29705	-423.2445900000001	216.9669299999996	887.64878	-441.69402	223.77454000000034	868.1089	-459.90653	221.08669999999984	856.8809800000002	-472.94981000000007	213.3353900000002	848.57699	-484.84785	-247.1484900000005	1194.24737	-83.46425	-307.68065000000024	1087.1736800000003	-45.89101999999999	-85.94568999999956	1030.48344	-178.86295999999996	129.20830999999998	976.1418	-313.93523	153.11214000000018	1000.68528	-334.50574000000006	187.3801599999997	1013.7652500000002	-331.208	212.26759999999922	1018.6560900000001	-327.86213999999995	233.89051000000018	1019.12494	-324.1751699999999	158.7149899999995	987.92505	-335.07728	208.72357999999986	989.8181999999999	-352.90325	244.9037499999995	990.55601	-352.24424999999997	263.4399800000001	993.9856199999999	-344.13516	276.1133200000004	998.82828	-332.22979	159.8228799999997	976.35919	-330.98189	209.19862000000012	971.9498899999999	-346.1573399999999	248.6640899999993	971.2220400000001	-344.82372	271.0204900000008	974.6241300000002	-334.7455	284.88407000000007	979.56527	-321.5755	159.33210999999937	968.1182799999999	-327.76295000000005	203.1643099999992	956.95062	-338.94732999999997	237.47009999999955	954.7565700000001	-337.1315	258.98551000000043	957.2098999999998	-327.06322	271.99748	961.4633299999999	-314.51563	157.29688999999962	958.7332300000003	-322.51761	196.26982999999927	942.6335700000002	-329.98188000000005	223.4052099999999	938.49228	-327.45866	238.9363800000001	939.1283499999998	-319.5976099999999	250.36949000000004	942.2324000000001	-308.18484
68	0.558	81.20300000000043	893.81699	129.612	165.51378999999997	903.71477	91.81189	60.94608999999946	501.92098	35.89626	41.68946000000051	115.33091000000002	16.37666	-68.75500000000011	44.00207	155.13121999999998	9.972859999999855	857.63779	180.15922999999998	-99.93786999999975	470.15277000000003	295.08391999999986	-214.55306999999993	73.93249000000002	461.18311	-370.77923999999985	34.73239999999999	358.24940999999995	19.81504000000041	1014.3197200000001	83.12898	-40.3791199999996	1075.76841	38.1149	-106.89622000000054	1133.53906	-11.574430000000003	-175.1316799999995	1178.8757699999999	-63.86071999999999	-249.54943999999978	1228.7113099999997	-116.43991000000003	-325.12762999999995	1267.5960699999998	-157.02928	-462.80902999999944	1348.02404	-160.9566	-202.63277000000016	1228.9295099999997	-114.49473	-120.97958000000017	1295.01592	-186.57538999999997	-18.808970000000045	1087.64248	-316.72173	182.53417999999965	955.8679100000002	-414.65552000000014	204.3804199999995	968.806	-445.5143800000001	209.8703999999998	958.86223	-480.54635	213.9080899999999	947.8062199999999	-503.26115	217.45762999999988	935.05519	-520.75902	209.3065800000004	956.28211	-441.85005	241.6933200000003	936.83544	-479.2015399999999	252.73128999999972	917.43635	-507.69405000000006	250.5934099999995	907.03023	-525.25119	242.7529800000002	899.53295	-539.67759	208.2160699999995	945.4440099999999	-436.0954500000001	239.2185499999996	920.61566	-469.41361000000006	250.99987000000056	898.07309	-499.62725	248.29421000000002	884.8590099999999	-520.3883	239.65392000000065	876.33502	-535.96871	206.74379000000044	938.31184	-431.04774	233.61474999999973	909.9533699999998	-456.44101	243.56402999999955	888.93931	-481.82642000000004	240.7845900000002	875.4679199999999	-501.3481600000001	232.58014000000003	867.1095	-515.75888	203.12693000000036	930.4290099999998	-424.37584	225.97166000000016	899.64904	-443.46815000000004	233.32232999999997	880.8143	-462.20490000000007	230.9968399999998	870.01713	-475.67455000000007	223.55745000000024	862.05407	-487.99719000000005	-247.0594200000005	1193.81586	-84.13529	-307.86005000000023	1085.9447400000001	-49.38232	-84.64715999999953	1033.71953	-181.7086	132.23820999999953	983.87311	-315.74159999999995	156.38470999999936	1009.26222	-334.95779000000005	190.52101999999923	1022.3623300000002	-330.55817	215.31898999999976	1027.2359500000002	-326.58217	236.8692200000005	1027.6637200000002	-322.48726	162.0614599999999	996.5564299999999	-335.89558000000005	212.37325000000055	999.32442	-352.72620000000006	248.53145999999924	1000.1964299999999	-351.3817000000001	266.90079999999944	1003.40653	-342.81584	279.3326299999999	1007.86316	-330.51176	163.15382000000045	984.85258	-332.20835999999997	212.8169600000001	981.2220899999999	-346.6337500000001	252.2551199999998	980.61904	-344.6092100000001	274.40858000000026	983.74591	-334.0073	288.0071400000006	988.2596099999997	-320.41435	162.64676999999938	976.49666	-329.30381	206.72956000000067	965.9411299999999	-340.09074	241.00766999999996	963.83246	-337.7322300000001	262.3252600000005	966.0078900000001	-327.19043	275.08707999999933	969.85353	-314.26015	160.56478999999945	966.91597	-324.4447400000001	199.74701000000005	951.2734899999999	-331.78438000000006	226.85307000000012	947.16137	-328.9212	242.23648999999932	947.57577	-320.76053	253.44601000000057	950.3076699999999	-309.03509
69	0.567	81.20300000000043	893.81699	129.612	165.73563999999988	904.02524	92.39442	61.00406000000021	502.13838	37.46302	41.225650000000314	115.53757	18.692300000000003	-69.19347000000016	44.329100000000004	157.52883000000003	9.733729999999923	857.3280399999999	179.59590000000003	-100.66864999999962	470.07624	294.835	-216.48865000000023	74.99108000000003	462.7919600000001	-371.19448999999986	37.452799999999996	356.98275000000007	19.8154399999994	1014.2822199999999	83.03135	-40.353729999999814	1075.7040699999998	37.94729000000001	-106.82752999999957	1133.4554300000002	-11.822359999999996	-174.98340999999982	1178.8096400000002	-64.19718	-249.35620000000017	1228.6393399999995	-116.84550000000002	-325.14842000000044	1267.3002000000001	-157.24924	-462.99100999999973	1347.4645499999997	-160.90237999999997	-202.46018000000004	1229.1994800000002	-114.51002000000001	-120.62064999999984	1296.8784	-184.88142	-14.292610000000423	1092.3392100000003	-316.17771000000005	190.20933999999943	966.3811700000001	-415.21383	212.48203999999987	980.561	-445.21017999999987	218.6960199999994	971.8692899999999	-480.45358999999996	223.24719000000005	961.6322700000001	-503.45338000000004	227.23272999999972	949.5187099999999	-521.3067	217.4612100000004	967.9638699999998	-441.88415	250.69908000000032	950.09535	-479.27623	262.4328599999999	931.7805299999999	-508.20494	260.7107699999997	921.9614899999999	-526.1418300000003	253.20316999999977	914.89146	-540.9557799999999	216.3712399999995	956.9262	-436.5222	248.20415000000048	933.52917	-470.09221	260.74216999999953	912.13828	-500.83402	258.53692000000046	899.61739	-522.07826	250.26020000000062	891.55354	-538.0949	214.8768	949.6128600000001	-431.74762000000004	242.4703499999996	922.3802	-457.59424000000007	253.07525999999962	902.33552	-483.49298	250.77642000000014	889.51449	-503.5089400000001	242.91283999999996	881.58006	-518.3431500000002	211.2162100000005	941.47463	-425.41481999999996	234.6942399999998	911.5706900000001	-445.12116	242.5606600000001	893.4535700000001	-464.34967000000006	240.58125999999993	883.10243	-478.21883	233.4412400000001	875.4986300000002	-490.93908999999996	-246.85754000000088	1193.41317	-84.90251	-307.85167999999976	1085.03549	-52.12053999999999	-83.28736000000026	1037.05484	-183.76565	135.2557800000004	991.6750899999998	-316.68799	159.57973000000038	1017.8238700000002	-334.6186400000001	193.56483000000026	1030.9351100000001	-329.19964999999996	218.26555000000008	1035.79298	-324.6415999999999	239.74158999999963	1036.18751	-320.17083	165.34144000000015	1005.1857000000001	-335.89194	215.9116299999996	1008.77494	-351.76586	252.0369299999993	1009.77952	-349.7814900000001	270.24243000000024	1012.7865300000001	-340.80213000000003	282.44194999999945	1016.8824699999998	-328.1452100000001	166.4365799999996	993.36848	-332.58698	216.35332999999991	990.4777999999999	-346.28598	255.75485000000026	990.0012400000002	-343.61679	277.71029	992.8743699999999	-332.54172	291.0544799999998	996.9891700000001	-318.57521	165.92716999999993	984.9159599999999	-329.97729999999996	210.24180999999953	974.9526799999999	-340.3703100000001	244.48680999999942	972.93447	-337.50582	265.6127800000004	974.85464	-326.5373	278.13512999999966	978.32023	-313.2698500000001	163.81714999999986	975.16497	-325.4827700000001	203.20242000000053	959.9759500000001	-332.68683	230.27909	955.90278	-329.50739999999996	245.52135999999973	956.1148	-321.0785	256.5179500000004	958.50072	-309.0791300000001
